<?xml version="1.0" standalone="no"?>
<!DOCTYPE svg PUBLIC "-//W3C//DTD SVG 20010904//EN"
 "http://www.w3.org/TR/2001/REC-SVG-20010904/DTD/svg10.dtd">
<svg version="1.0" xmlns="http://www.w3.org/2000/svg"
 width="512.000000pt" height="512.000000pt" viewBox="0 0 512.000000 512.000000"
 preserveAspectRatio="xMidYMid meet">
<metadata>
Created by potrace 1.14, written by Peter Selinger 2001-2017
</metadata>
<g transform="translate(0.000000,512.000000) scale(0.100000,-0.100000)"
fill="#000000" stroke="none">
<path d="M4176 5005 c-66 -25 -141 -90 -387 -335 -395 -394 -747 -795 -1019
-1163 l-65 -88 -12 198 c-6 109 -21 308 -33 443 -11 135 -24 311 -28 392 -7
136 -10 149 -32 173 -59 63 -127 19 -245 -159 -130 -197 -332 -583 -530 -1016
-290 -632 -511 -1020 -682 -1197 -68 -70 -117 -103 -193 -128 -73 -24 -110
-62 -110 -112 0 -70 33 -94 150 -108 99 -12 280 -118 280 -165 0 -19 44 -60
65 -60 21 0 285 -337 285 -364 0 -6 -18 -76 -40 -156 -129 -467 -137 -770 -24
-884 58 -57 127 -70 202 -36 110 50 169 123 286 358 48 96 90 172 94 170 4 -2
34 -16 67 -33 82 -41 166 -46 215 -13 66 45 91 111 136 358 52 289 129 456
234 510 19 10 154 50 300 90 316 86 401 123 483 209 89 93 100 177 32 246 -42
42 -102 59 -169 50 -144 -19 -382 -143 -571 -297 -83 -67 -127 -94 -178 -109
l-28 -8 32 57 c55 98 208 317 290 415 76 92 173 178 234 210 17 8 56 23 88 32
32 9 70 27 85 40 23 20 27 31 26 72 -6 224 -4 260 21 360 61 252 195 543 583
1263 149 277 308 602 324 662 9 35 9 53 0 72 -24 52 -100 76 -166 51z m95 -64
l23 -19 -28 -73 c-35 -88 -206 -427 -376 -739 -276 -510 -444 -877 -504 -1100
-34 -128 -48 -238 -36 -281 15 -50 12 -144 -3 -158 -8 -6 -29 -14 -48 -18 -84
-16 -228 -119 -332 -236 -109 -123 -257 -335 -373 -534 -10 -18 -24 -33 -30
-33 -6 0 -26 -3 -44 -7 l-33 -6 33 59 c140 248 321 503 447 626 90 89 137 125
222 168 34 16 61 31 61 33 1 1 5 63 10 137 11 166 47 313 126 513 56 141 229
497 349 717 248 456 355 664 355 694 0 58 -39 72 -99 35 -49 -30 -372 -357
-552 -559 -368 -414 -727 -860 -755 -938 -8 -22 -13 -84 -14 -155 0 -242 -74
-416 -183 -434 -86 -14 -123 28 -114 131 7 82 36 157 102 257 100 153 97 142
96 379 0 285 -41 912 -61 950 -11 21 -39 30 -66 20 -39 -15 -173 -276 -454
-880 -383 -826 -602 -1203 -814 -1397 -37 -33 -66 -68 -66 -77 0 -9 12 -21 28
-26 15 -6 34 -14 42 -20 8 -5 50 -30 92 -56 91 -54 203 -169 300 -305 72 -103
71 -102 220 -73 182 35 521 105 653 134 77 17 167 36 200 41 87 14 148 46 254
132 143 116 325 221 459 266 225 76 319 -79 133 -219 -77 -58 -117 -73 -421
-156 -151 -42 -294 -87 -317 -100 -56 -32 -101 -87 -145 -176 -56 -114 -72
-174 -133 -498 -21 -110 -50 -170 -95 -194 -34 -18 -38 -18 -92 -2 -89 25
-219 120 -324 233 -163 177 -284 321 -284 339 0 20 -248 331 -330 415 -135
136 -241 198 -375 217 -47 7 -50 9 -50 37 0 25 6 33 40 48 63 30 166 102 211
149 96 100 223 281 327 464 75 132 269 526 408 828 196 424 397 803 520 982
60 86 91 117 116 112 15 -3 18 -15 21 -88 1 -47 13 -220 27 -385 35 -427 47
-641 39 -701 -8 -66 6 -94 46 -94 26 0 37 10 78 67 77 108 248 330 346 448
420 506 997 1091 1101 1118 35 9 42 7 66 -12z m-289 -363 c-27 -51 -134 -250
-237 -443 -410 -761 -530 -1063 -542 -1355 l-6 -126 -44 -18 c-180 -75 -420
-356 -672 -789 l-76 -131 -235 -48 c-129 -26 -240 -47 -246 -48 -7 0 -4 40 8
118 13 82 18 155 15 247 -2 114 -6 137 -28 185 -64 138 -185 177 -319 104 -82
-45 -203 -186 -257 -300 l-16 -32 -60 39 c-34 22 -63 41 -65 44 -3 3 26 37 64
77 213 225 411 570 784 1373 166 357 364 759 394 800 13 18 14 17 20 -25 23
-170 60 -878 52 -985 -6 -75 -10 -84 -55 -150 -157 -227 -195 -424 -98 -513
36 -34 89 -43 145 -26 141 42 220 216 225 497 l2 133 47 65 c133 187 456 575
738 889 144 160 491 510 506 510 3 0 -17 -42 -44 -92z m-2181 -2351 c19 -12
45 -44 59 -72 33 -67 39 -209 16 -368 -27 -184 -26 -180 -69 -190 -21 -5 -40
-8 -41 -6 -2 2 7 54 20 114 30 133 42 330 25 394 -32 116 -132 123 -242 16
-46 -44 -104 -126 -138 -194 -20 -39 -24 -42 -38 -28 -14 13 -11 22 22 85 64
122 173 236 255 265 37 13 98 6 131 -16z m-56 -127 c10 -19 15 -58 15 -118 0
-124 -52 -401 -77 -409 -6 -2 -35 29 -64 69 -30 40 -78 99 -106 130 -29 32
-53 64 -53 71 0 7 20 46 44 87 101 172 203 244 241 170z m-38 -893 l31 -43
-29 -119 c-49 -201 -89 -407 -95 -502 -11 -143 18 -194 100 -179 60 11 123 95
229 302 l92 183 25 -19 25 -19 -92 -183 c-103 -204 -162 -282 -244 -323 -68
-35 -103 -33 -144 8 -95 95 -89 365 16 767 38 144 46 170 53 170 1 0 16 -19
33 -43z m187 -214 l97 -102 -90 -178 c-98 -192 -147 -267 -187 -285 -39 -18
-46 2 -40 107 8 125 100 570 116 563 3 -2 50 -49 104 -105z"/>
<path d="M2520 3048 c-42 -43 -100 -207 -100 -282 0 -94 80 -95 125 -2 34 71
61 216 49 264 -11 46 -42 54 -74 20z m-4 -185 c-19 -75 -42 -123 -32 -65 9 53
37 144 43 138 3 -3 -2 -36 -11 -73z"/>
<path d="M3395 2086 c-118 -33 -325 -132 -387 -185 -30 -26 -38 -40 -36 -60 4
-38 45 -38 175 -1 210 60 311 106 358 162 59 70 0 114 -110 84z m45 -68 c-14
-11 -52 -33 -85 -48 -61 -29 -266 -92 -273 -85 -13 13 317 153 363 154 18 0
18 -1 -5 -21z"/>
<path d="M2425 1573 c-150 -27 -620 -122 -657 -133 -44 -13 -55 -38 -34 -77
18 -35 225 -270 297 -339 108 -101 232 -174 298 -174 55 0 95 49 114 140 57
276 73 337 113 438 56 140 55 156 -6 158 -25 1 -81 -5 -125 -13z m99 -70 c-43
-97 -86 -244 -114 -394 -20 -100 -38 -171 -48 -182 -20 -23 -78 -18 -118 8
l-25 16 115 222 c179 345 190 367 199 367 4 0 0 -17 -9 -37z m-144 -110 c-37
-71 -98 -190 -136 -265 -38 -76 -72 -138 -75 -138 -4 0 -17 8 -29 18 l-22 18
122 241 c129 256 120 245 192 252 12 1 -1 -32 -52 -126z m-100 92 c0 -7 -201
-408 -207 -415 -5 -5 -170 165 -209 215 -20 27 -21 35 -12 76 l10 45 202 41
c234 47 216 44 216 38z"/>
</g>
</svg>
